# xmcd
#
# Track frame offsets:
#	150
#	12322
#	31117
#	65032
#	86369
#	106854
#	127397
#	145653
#	173127
#
# Disc length: 2348 seconds
#
# Revision: 1
# Processed by: cddbd v1.5.2PL0 Copyright (c) Steve Scherf et al.
# Submitted via: FairStars CD Ripper 1.90
#
DISCID=73092a09
DTITLE=Julian Piper - Primal Blues
DYEAR=2004
DGENRE=Blues
TTITLE0=Shake
TTITLE1=Midnight is Calling
TTITLE2=Early in the morning
TTITLE3=Feel like going home
TTITLE4=Good lookin' girl blues
TTITLE5=plum Nellie
TTITLE6=Carrie Lee
TTITLE7=Going Down South
TTITLE8=Richard Thomson Speaks
EXTD=
EXTT0=
EXTT1=
EXTT2=
EXTT3=
EXTT4=
EXTT5=
EXTT6=
EXTT7=
EXTT8=
PLAYORDER=
